<?xml version="1.0" encoding="UTF-8"?>
<svg xmlns="http://www.w3.org/2000/svg" xmlns:xlink="http://www.w3.org/1999/xlink" width="52px" height="52px" viewBox="0 0 52 52" version="1.1">
<g id="surface1">
<path style=" stroke:none;fill-rule:evenodd;fill:rgb(33.333333%,33.333333%,33.333333%);fill-opacity:1;" d="M 3.902344 0 L 8.042969 46.945312 L 26 52 L 43.957031 46.945312 L 48.097656 0 Z M 39.199219 15.214844 L 25.984375 21.125 L 25.949219 21.136719 L 38.734375 21.136719 L 37.269531 38.71875 L 26.003906 42.160156 L 25.984375 42.152344 L 25.984375 42.160156 L 14.65625 38.652344 L 13.925781 29.800781 L 19.546875 29.800781 L 19.914062 34.386719 L 25.933594 35.976562 L 25.984375 35.960938 L 25.984375 35.96875 L 32.214844 34.132812 L 32.644531 26.746094 L 25.984375 26.722656 L 13.558594 26.679688 L 13.132812 21.140625 L 25.984375 15.542969 L 26.734375 15.214844 L 12.644531 15.214844 L 11.972656 9.542969 L 39.75 9.542969 Z M 39.199219 15.214844 "/>
</g>
</svg>
