<?xml version="1.0" encoding="UTF-8"?>
<svg xmlns="http://www.w3.org/2000/svg" xmlns:xlink="http://www.w3.org/1999/xlink" width="54px" height="54px" viewBox="0 0 54 54" version="1.1">
<g id="surface1">
<path style=" stroke:none;fill-rule:nonzero;fill:rgb(26.666667%,26.666667%,26.666667%);fill-opacity:1;" d="M 7.871094 5.757812 L 11.351562 44.867188 L 26.976562 49.210938 L 42.644531 44.859375 L 46.128906 5.757812 Z M 15.105469 15.039062 L 14.988281 13.75 L 26.984375 13.75 L 26.984375 18.546875 L 20.226562 18.546875 L 20.660156 23.457031 L 26.984375 23.457031 L 26.984375 28.253906 L 16.28125 28.253906 L 15.105469 15.035156 Z M 38 24.746094 L 36.875 37.375 L 36.800781 38.183594 L 26.976562 40.910156 L 17.167969 38.183594 L 16.492188 30.652344 L 21.300781 30.652344 L 21.640625 34.480469 L 26.980469 35.921875 L 32.320312 34.476562 L 32.875 28.253906 L 26.996094 28.253906 L 26.996094 23.460938 L 38.109375 23.460938 L 37.992188 24.746094 Z M 38.867188 15.039062 L 38.648438 17.46875 L 38.554688 18.546875 L 27 18.546875 L 27 13.75 L 38.980469 13.75 Z M 38.867188 15.039062 "/>
</g>
</svg>
