<?xml version="1.0" encoding="UTF-8"?>
<svg xmlns="http://www.w3.org/2000/svg" xmlns:xlink="http://www.w3.org/1999/xlink" width="54px" height="54px" viewBox="0 0 54 54" version="1.1">
<g id="surface1">
<path style=" stroke:none;fill-rule:nonzero;fill:rgb(26.666667%,26.666667%,26.666667%);fill-opacity:1;" d="M 16.253906 13.445312 L 22.585938 13.445312 L 22.585938 31.1875 C 22.585938 39.183594 18.753906 41.972656 12.632812 41.972656 C 11.132812 41.972656 9.214844 41.726562 7.96875 41.308594 L 8.675781 36.183594 C 9.550781 36.476562 10.675781 36.683594 11.925781 36.683594 C 14.589844 36.683594 16.253906 35.476562 16.253906 31.148438 Z M 28.082031 35.019531 C 29.746094 35.894531 32.414062 36.769531 35.121094 36.769531 C 38.035156 36.769531 39.574219 35.5625 39.574219 33.6875 C 39.574219 31.980469 38.242188 30.941406 34.871094 29.773438 C 30.207031 28.109375 27.125 25.527344 27.125 21.402344 C 27.125 16.613281 31.164062 12.988281 37.746094 12.988281 C 40.953125 12.988281 43.242188 13.613281 44.910156 14.40625 L 43.492188 19.488281 C 42.410156 18.945312 40.371094 18.152344 37.660156 18.152344 C 34.914062 18.152344 33.578125 19.445312 33.578125 20.863281 C 33.578125 22.652344 35.121094 23.445312 38.785156 24.859375 C 43.742188 26.691406 46.03125 29.273438 46.03125 33.269531 C 46.03125 37.976562 42.449219 41.972656 34.746094 41.972656 C 31.539062 41.972656 28.375 41.101562 26.792969 40.226562 Z M 28.082031 35.019531 "/>
</g>
</svg>
