<?xml version="1.0" encoding="UTF-8"?>
<svg xmlns="http://www.w3.org/2000/svg" xmlns:xlink="http://www.w3.org/1999/xlink" width="54px" height="54px" viewBox="0 0 54 54" version="1.1">
<g id="surface1">
<path style=" stroke:none;fill-rule:nonzero;fill:rgb(26.666667%,26.666667%,26.666667%);fill-opacity:1;" d="M 30.675781 26.980469 C 30.675781 29.078125 28.972656 30.777344 26.875 30.777344 C 24.777344 30.777344 23.078125 29.078125 23.078125 26.980469 C 23.078125 24.882812 24.777344 23.179688 26.875 23.179688 C 28.972656 23.179688 30.675781 24.882812 30.675781 26.980469 Z M 30.675781 26.980469 "/>
<path style=" stroke:none;fill-rule:nonzero;fill:rgb(26.666667%,26.666667%,26.666667%);fill-opacity:1;" d="M 26.875 40.949219 C 29.859375 43.851562 32.796875 45.566406 35.167969 45.566406 C 35.945312 45.566406 36.679688 45.402344 37.292969 45.035156 C 39.414062 43.808594 40.191406 40.746094 39.457031 36.375 C 39.332031 35.597656 39.171875 34.820312 38.964844 34.003906 C 39.78125 33.761719 40.515625 33.515625 41.253906 33.269531 C 45.378906 31.675781 47.664062 29.46875 47.664062 27.0625 C 47.664062 24.609375 45.378906 22.402344 41.253906 20.851562 C 40.515625 20.566406 39.78125 20.320312 38.964844 20.117188 C 39.171875 19.300781 39.332031 18.523438 39.457031 17.746094 C 40.148438 13.296875 39.375 10.191406 37.25 8.964844 C 36.636719 8.597656 35.902344 8.433594 35.128906 8.433594 C 32.796875 8.433594 29.816406 10.148438 26.835938 13.046875 C 23.894531 10.148438 20.953125 8.433594 18.582031 8.433594 C 17.808594 8.433594 17.070312 8.597656 16.460938 8.964844 C 14.335938 10.191406 13.5625 13.253906 14.296875 17.625 C 14.417969 18.402344 14.582031 19.175781 14.785156 19.996094 C 13.96875 20.238281 13.234375 20.484375 12.5 20.730469 C 8.375 22.324219 6.085938 24.527344 6.085938 26.9375 C 6.085938 29.386719 8.375 31.59375 12.5 33.148438 C 13.234375 33.429688 13.96875 33.675781 14.785156 33.878906 C 14.582031 34.699219 14.417969 35.476562 14.296875 36.25 C 13.601562 40.621094 14.378906 43.726562 16.460938 44.914062 C 17.074219 45.28125 17.808594 45.441406 18.582031 45.441406 C 20.953125 45.523438 23.894531 43.808594 26.875 40.949219 Z M 24.585938 35.433594 C 25.324219 35.476562 26.097656 35.476562 26.875 35.476562 C 27.648438 35.476562 28.425781 35.476562 29.160156 35.433594 C 28.425781 36.414062 27.648438 37.316406 26.875 38.171875 C 26.097656 37.316406 25.324219 36.414062 24.585938 35.433594 Z M 19.523438 31.226562 C 19.929688 31.921875 20.296875 32.578125 20.746094 33.230469 C 19.480469 33.066406 18.300781 32.859375 17.15625 32.613281 C 17.523438 31.515625 17.933594 30.367188 18.421875 29.226562 C 18.75 29.878906 19.113281 30.574219 19.523438 31.226562 Z M 17.152344 21.382812 C 18.296875 21.136719 19.480469 20.933594 20.746094 20.769531 C 20.339844 21.421875 19.929688 22.078125 19.519531 22.769531 C 19.109375 23.464844 18.742188 24.117188 18.417969 24.8125 C 17.886719 23.628906 17.476562 22.484375 17.152344 21.378906 Z M 19.398438 26.980469 C 19.929688 25.878906 20.503906 24.773438 21.15625 23.671875 C 21.769531 22.609375 22.464844 21.546875 23.160156 20.484375 C 24.382812 20.402344 25.609375 20.363281 26.875 20.363281 C 28.183594 20.363281 29.410156 20.402344 30.59375 20.484375 C 31.332031 21.546875 31.980469 22.609375 32.597656 23.671875 C 33.25 24.773438 33.820312 25.878906 34.351562 26.980469 C 33.820312 28.082031 33.25 29.183594 32.597656 30.289062 C 31.980469 31.347656 31.289062 32.410156 30.59375 33.472656 C 29.367188 33.554688 28.144531 33.597656 26.875 33.597656 C 25.570312 33.597656 24.34375 33.554688 23.160156 33.472656 C 22.421875 32.410156 21.769531 31.347656 21.15625 30.289062 C 20.503906 29.183594 19.929688 28.082031 19.398438 26.980469 Z M 35.375 24.773438 L 34.269531 22.730469 C 33.863281 22.035156 33.496094 21.382812 33.046875 20.730469 C 34.3125 20.894531 35.496094 21.097656 36.640625 21.34375 C 36.273438 22.484375 35.863281 23.628906 35.375 24.773438 Z M 35.375 29.183594 C 35.863281 30.328125 36.273438 31.472656 36.640625 32.578125 C 35.496094 32.820312 34.3125 33.027344 33.046875 33.1875 C 33.453125 32.535156 33.863281 31.882812 34.269531 31.1875 C 34.640625 30.574219 35.007812 29.882812 35.375 29.1875 Z M 36.3125 43.359375 C 35.984375 43.566406 35.578125 43.648438 35.128906 43.648438 C 33.125 43.648438 30.632812 42.011719 28.183594 39.5625 C 29.367188 38.296875 30.511719 36.867188 31.65625 35.269531 C 33.574219 35.109375 35.414062 34.820312 37.128906 34.414062 C 37.332031 35.148438 37.457031 35.882812 37.578125 36.621094 C 38.148438 40.089844 37.699219 42.585938 36.3125 43.359375 Z M 38.4375 21.832031 C 43.011719 23.140625 45.75 25.140625 45.75 26.980469 C 45.75 28.570312 43.871094 30.167969 40.5625 31.433594 C 39.90625 31.675781 39.171875 31.921875 38.4375 32.125 C 37.90625 30.449219 37.253906 28.734375 36.4375 26.980469 C 37.253906 25.222656 37.949219 23.507812 38.4375 21.832031 Z M 35.167969 10.3125 C 35.617188 10.3125 35.984375 10.394531 36.351562 10.597656 C 37.699219 11.375 38.191406 13.824219 37.617188 17.339844 C 37.496094 18.03125 37.332031 18.769531 37.167969 19.546875 C 35.453125 19.175781 33.613281 18.890625 31.695312 18.6875 C 30.59375 17.09375 29.40625 15.664062 28.222656 14.394531 C 30.675781 11.984375 33.164062 10.3125 35.167969 10.3125 Z M 29.164062 18.523438 C 28.429688 18.480469 27.652344 18.480469 26.875 18.480469 C 26.101562 18.480469 25.324219 18.480469 24.589844 18.523438 C 25.324219 17.542969 26.101562 16.644531 26.875 15.785156 C 27.652344 16.644531 28.429688 17.585938 29.164062 18.523438 Z M 17.4375 10.597656 C 17.765625 10.394531 18.175781 10.3125 18.625 10.3125 C 20.625 10.3125 23.117188 11.949219 25.566406 14.394531 C 24.382812 15.664062 23.238281 17.09375 22.097656 18.6875 C 20.175781 18.851562 18.335938 19.136719 16.621094 19.546875 C 16.414062 18.808594 16.292969 18.074219 16.171875 17.339844 C 15.597656 13.867188 16.046875 11.414062 17.4375 10.597656 Z M 15.316406 32.125 C 10.738281 30.820312 8.003906 28.816406 8.003906 26.980469 C 8.003906 25.386719 9.882812 23.792969 13.191406 22.527344 C 13.84375 22.285156 14.578125 22.035156 15.3125 21.835938 C 15.84375 23.507812 16.5 25.222656 17.316406 26.980469 C 16.5 28.738281 15.804688 30.492188 15.3125 32.128906 Z M 16.171875 36.621094 C 16.292969 35.925781 16.460938 35.191406 16.621094 34.414062 C 18.335938 34.78125 20.175781 35.066406 22.097656 35.269531 C 23.199219 36.867188 24.382812 38.292969 25.570312 39.5625 C 23.117188 41.96875 20.625 43.648438 18.625 43.648438 C 18.175781 43.648438 17.808594 43.566406 17.441406 43.359375 C 16.050781 42.585938 15.601562 40.089844 16.175781 36.621094 Z M 16.171875 36.621094 "/>
</g>
</svg>
